<svg id="Layer_1" data-name="Layer 1" xmlns="http://www.w3.org/2000/svg" viewBox="0 0 1330.32 681.38"><defs><style>.cls-1{fill:#204359;}</style></defs><path class="cls-1" d="M665.23,439a17.69,17.69,0,1,0,17.69,17.68A17.69,17.69,0,0,0,665.23,439Zm0,30a12.29,12.29,0,1,1,12.29-12.29A12.31,12.31,0,0,1,665.23,469Z"/><path class="cls-1" d="M665.23,422.17a13.94,13.94,0,1,0-13.93-13.94A13.94,13.94,0,0,0,665.23,422.17Zm0-23.38a9.44,9.44,0,1,1-9.44,9.44A9.45,9.45,0,0,1,665.23,398.79Z"/><path class="cls-1" d="M665.23,377.49a11.9,11.9,0,1,0-11.89-11.9A11.89,11.89,0,0,0,665.23,377.49Zm0-19.29a7.4,7.4,0,1,1-7.39,7.39A7.4,7.4,0,0,1,665.23,358.2Z"/><path class="cls-1" d="M665.23,336.89a9.83,9.83,0,1,0-9.82-9.82A9.83,9.83,0,0,0,665.23,336.89Zm0-15.15a5.33,5.33,0,1,1-5.32,5.33A5.33,5.33,0,0,1,665.23,321.74Z"/><path class="cls-1" d="M665.23,300.44a8.83,8.83,0,1,0-8.83-8.83A8.83,8.83,0,0,0,665.23,300.44Zm0-13.16a4.33,4.33,0,1,1-4.33,4.33A4.33,4.33,0,0,1,665.23,287.28Z"/><path class="cls-1" d="M665.23,250.09a7.94,7.94,0,1,0,7.94,7.94A7.94,7.94,0,0,0,665.23,250.09Zm0,11.38a3.44,3.44,0,1,1,3.44-3.44A3.44,3.44,0,0,1,665.23,261.47Z"/><path class="cls-1" d="M665.23,217.63a7.94,7.94,0,1,0,7.94,7.94A7.95,7.95,0,0,0,665.23,217.63Zm0,11.38a3.44,3.44,0,1,1,3.44-3.44A3.44,3.44,0,0,1,665.23,229Z"/><path class="cls-1" d="M665.23,491.36a13.94,13.94,0,1,0,13.94,13.93A13.93,13.93,0,0,0,665.23,491.36Zm0,23.37a9.44,9.44,0,1,1,9.44-9.44A9.45,9.45,0,0,1,665.23,514.73Z"/><path class="cls-1" d="M665.23,536a11.89,11.89,0,1,0,11.89,11.89A11.89,11.89,0,0,0,665.23,536Zm0,19.28a7.39,7.39,0,1,1,7.39-7.39A7.4,7.4,0,0,1,665.23,555.32Z"/><path class="cls-1" d="M665.23,576.58a9.83,9.83,0,1,0,9.83,9.82A9.82,9.82,0,0,0,665.23,576.58Zm0,15.15a5.33,5.33,0,1,1,5.33-5.33A5.33,5.33,0,0,1,665.23,591.73Z"/><path class="cls-1" d="M665.23,613a8.83,8.83,0,1,0,8.83,8.83A8.83,8.83,0,0,0,665.23,613Zm0,13.16a4.33,4.33,0,1,1,4.33-4.33A4.34,4.34,0,0,1,665.23,626.2Z"/><path class="cls-1" d="M665.23,647.51a8.83,8.83,0,1,0,8.83,8.82A8.83,8.83,0,0,0,665.23,647.51Zm0,13.15a4.33,4.33,0,1,1,4.33-4.33A4.33,4.33,0,0,1,665.23,660.66Z"/><path class="cls-1" d="M612.77,118.11a2.74,2.74,0,0,1,1.29,2.54,21.39,21.39,0,0,0,13.5,20.25,4.16,4.16,0,0,1,1.66,1.37,21.53,21.53,0,0,0,35.27.29c.23-.31.48-.6.79-1,.32.4.57.7.79,1a21.54,21.54,0,0,0,35.36-.44,3.76,3.76,0,0,1,1.58-1.23A21.4,21.4,0,0,0,716.5,120.5a2.48,2.48,0,0,1,1.17-2.31,19.05,19.05,0,0,0,5.66-24.78,2.09,2.09,0,0,1,.06-2.3,19.07,19.07,0,0,0-2-21.2,2.71,2.71,0,0,1-.66-2.54A19.18,19.18,0,0,0,708,45.46c-.37-.12-.72-.29-1-.41,0-.15,0-.2,0-.25.05-.29.11-.58.16-.88a14.49,14.49,0,0,0-5.84-15c-1.14-.87-2.49-1.48-3.65-2.33a52.1,52.1,0,0,0-15.22-8.18c-6-1.9-11.87-2.48-16.94,2.4-.05.05-.19,0-.34,0-3.39-3.42-7.54-4.33-12.22-3.56a42.68,42.68,0,0,0-15.94,6.55q-3.72,2.37-7.35,4.88A13.92,13.92,0,0,0,623.33,39a60.81,60.81,0,0,0,0,6.2c.11,0,0,0-.15.07A19.39,19.39,0,0,0,609.83,67.8a2.58,2.58,0,0,1-.51,1.85c-5.22,6.78-5.89,14-2.07,21.59a2,2,0,0,1,0,2.16A19.1,19.1,0,0,0,612.77,118.11Zm62.56-94.53a26.72,26.72,0,0,1,11.23,3.65,48.13,48.13,0,0,0-4.27,3.38,16.38,16.38,0,0,0-2.61,3.61,3.22,3.22,0,1,0,5.67,3,8.19,8.19,0,0,1,15.11,6.25A1.6,1.6,0,0,1,699,44.68c-9.45,1.68-16.24,9.39-16.34,18.49,0,2.24,1.22,3.76,3.11,3.82s3.23-1.34,3.4-3.6c.5-6.6,4.71-11.37,10.85-12.27a12.69,12.69,0,0,1,14,16.5,4.5,4.5,0,0,0,1.34,5.3,11.93,11.93,0,0,1,3.13,13.33c-1.82,5-5.57,7.89-11,8.45-.45,0-.9,0-1.34.11a3.21,3.21,0,0,0-2.91,3.39,3.17,3.17,0,0,0,3.26,3,18.48,18.48,0,0,0,10.21-2.94c.42-.26.84-.5,1.41-.83A12.76,12.76,0,0,1,712.05,114c-2.09,1.06-2.58,2-2.19,4.32a15,15,0,0,1-10.07,16.73,5.81,5.81,0,0,0-3.37,2.7,14.92,14.92,0,0,1-16.66,6.8,15,15,0,0,1-1-28.77c2.75-1,3.82-2.52,3.11-4.51s-2.57-2.75-5.25-1.6-5.34,2.77-8.09,4.23v-1.32q0-23.15,0-46.28a5.8,5.8,0,0,1,5.73-6.21c2.12-.17,3.46-1.53,3.38-3.42A3.17,3.17,0,0,0,674,53.64a54.52,54.52,0,0,0-5.37,1c0-.34-.07-.81-.07-1.28q0-11.69,0-23.37C668.55,25.76,671.05,23.34,675.33,23.58ZM624.74,94.87c-1-.18-2-.1-3-.32-4.91-1.11-8.35-4-9.82-8.85a12,12,0,0,1,3.3-12.77,4.52,4.52,0,0,0,1.36-5.29,12,12,0,0,1,3.45-13.26,12,12,0,0,1,13.36-2.47c5,2,7.65,5.9,8,11.31.19,3.12,2.7,4.72,5.06,3.2a3.35,3.35,0,0,0,1.47-3.08,19.29,19.29,0,0,0-15.15-18.43c-2.55-.52-3-1.08-3.14-3.71a8.21,8.21,0,0,1,5.67-8.12,8.08,8.08,0,0,1,9.15,3c.32.45.56.94.86,1.4a3.24,3.24,0,0,0,4.3,1.26,3.18,3.18,0,0,0,1.43-4.23,14.2,14.2,0,0,0-5.77-6.31l-1.51-.89c4.37-2.25,8.62-4.14,13.48-3.66A5.49,5.49,0,0,1,662,28.79c.11,5.54,0,11.08,0,16.62,0,.08-.09.16-.08.14-1.73-.35-3.41-.83-5.12-1-2.18-.25-3.66.94-3.84,2.83s1,3.33,3.3,3.59c3.78.41,5.77,2.64,5.78,6.49q0,34.38,0,68.74a39.68,39.68,0,0,1-.23,6.27,15,15,0,0,1-27.73,5.19,5.33,5.33,0,0,0-3.16-2.5,15,15,0,0,1-10.18-16.79c.39-2.3-.1-3.24-2.21-4.3-6.12-3.08-8.84-10.42-6.19-16.12,3,1.07,5.88,2.16,8.8,3.06a10.18,10.18,0,0,0,3.27.22,3.2,3.2,0,0,0,.36-6.34Z"/><path class="cls-1" d="M642.66,83.77a2.14,2.14,0,0,1,1.88-1.71A17.81,17.81,0,0,0,653.68,77a4.13,4.13,0,0,0,1-1.91,3,3,0,0,0-1.64-3.39,3.1,3.1,0,0,0-3.84.62A13,13,0,0,1,641,76.06a12.79,12.79,0,0,1-13.62-12.47c0-2.31-1.4-3.55-3.43-3.46s-3.06,1.47-3,3.7a18.54,18.54,0,0,0,3.36,10.38,19.45,19.45,0,0,0,12.08,8,8.19,8.19,0,0,1-7.25,5.24c-2.36.18-3.74,1.5-3.63,3.48s1.62,3.12,4,3A14.62,14.62,0,0,0,642.66,83.77Z"/><path class="cls-1" d="M651.7,94.38a19.29,19.29,0,0,0-18.48,17c-.08.79-.19,1.25-1.18,1.29-2.21.08-3.57,1.39-3.55,3.23s1.44,3.13,3.7,3.25a12.6,12.6,0,0,1,10.09,5.6,13.27,13.27,0,0,1,2.25,7.18,3.14,3.14,0,0,0,3.25,3.2c2,0,3.28-1.47,3.18-3.71a18.62,18.62,0,0,0-10.08-16.4,2.15,2.15,0,0,1-1.28-2.48,12.83,12.83,0,0,1,12.33-11.69c2.26-.1,3.68-1.39,3.66-3.29S654,94.32,651.7,94.38Z"/><path class="cls-1" d="M676.05,72.73c-1.27,1.36-1.11,3.29.4,4.79a17.93,17.93,0,0,0,9.07,4.94,2.12,2.12,0,0,1,1.82,1.77,14.6,14.6,0,0,0,13.58,10.16,3.33,3.33,0,0,0,3.63-3,3.26,3.26,0,0,0-3.19-3.44c-.49-.06-1-.08-1.48-.18a8.12,8.12,0,0,1-6.2-5.08l1.5-.44c8.12-2.37,14-10,13.94-18.21a3.27,3.27,0,1,0-6.53-.19,18,18,0,0,1-.17,2.08c-1,4.84-3.76,8.25-8.45,9.83a12.35,12.35,0,0,1-13-2.91C679.25,71.29,677.42,71.26,676.05,72.73Z"/><path class="cls-1" d="M700.59,115.34c-.09-.69-.17-1.18-.23-1.67A19.37,19.37,0,0,0,682,97.05c-2.33,0-3.86,1.22-3.89,3.2s1.35,3.21,3.61,3.33A12.77,12.77,0,0,1,694,114.64a2.73,2.73,0,0,1-1.58,3.31,18.49,18.49,0,0,0-9.72,16.6,3.17,3.17,0,0,0,4,3.19c1.55-.38,2.34-1.58,2.47-3.82a12.4,12.4,0,0,1,5.76-10,12.79,12.79,0,0,1,6.92-2.1,3.19,3.19,0,0,0,3.27-3.2,3.27,3.27,0,0,0-3.2-3.3C701.52,115.31,701.12,115.34,700.59,115.34Z"/><path class="cls-1" d="M699.88,16.43c1.07.34,1.67.58,1.67.58A12.52,12.52,0,0,0,699.88,16.43Z"/><path class="cls-1" d="M1328.26,133l-14.85,3.94a145.59,145.59,0,0,0-16.33,5.35h0c-1.2.48-2.39,1-3.58,1.48l-60.12,24.7,3.89-12a72.64,72.64,0,0,0,2.22-8.71,135.93,135.93,0,0,0,2.37-16.27l0,0c0-.31.06-.61.07-.92,0-.64,0-1.29,0-1.94,0,0,0-.08,0-.13a38.31,38.31,0,0,0-3.13-17,1.61,1.61,0,0,0-2.73-.36c-12.52,16.62-25,31.72-36.26,47.13h0l0,0-1.82,2.53c-6,8.22-25.07,33.67-33.6,36.14a57.75,57.75,0,0,1-9.44,1.67c-38.89,4-79.8,4.22-115.72,17.38-46.87,17.17-91,18.13-137.81,6.26-20.81-5.28-42.49-5-63.89-7.2a33.66,33.66,0,0,1-4.88-.85l-38.52-9.42-.25,0c-.78-.2-1.58-.36-2.41-.49h-.07c-7.65-1.12-17,.86-24.25,3.58-16.67,6.27-29.86-2.24-38-11.93L714,176a174.23,174.23,0,0,0,21.93-45.33c7.92-24.8,10-49.31,5.91-69C731.4,11.46,690,3.65,676.43,1.08L676,1a58.1,58.1,0,0,0-21.44,0l-.45.08c-13.59,2.57-55,10.38-65.42,60.61-4.1,19.71-2,44.22,5.92,69a174.52,174.52,0,0,0,21.83,45.19L601.25,196c-8.17,9.69-21.35,18.2-38,11.93-7.24-2.72-16.6-4.7-24.25-3.58h-.07c-.83.13-1.63.29-2.41.49l-.24,0-38.53,9.42a33.53,33.53,0,0,1-4.87.85c-21.41,2.18-43.09,1.92-63.89,7.2-46.78,11.87-90.94,10.91-137.82-6.26-35.92-13.16-76.83-13.36-115.72-17.38A57.75,57.75,0,0,1,166,197c-8.53-2.47-27.61-27.92-33.6-36.14-.6-.84-1.2-1.69-1.82-2.53v0h0c-11.24-15.41-23.75-30.51-36.27-47.13a1.61,1.61,0,0,0-2.73.36,38.31,38.31,0,0,0-3.13,17,.62.62,0,0,1,0,.13c0,.65,0,1.3,0,1.94,0,.31,0,.61.07.92l0,0a135.93,135.93,0,0,0,2.37,16.27,70.84,70.84,0,0,0,2.23,8.71l3.88,12-60.12-24.7c-1.18-.51-2.38-1-3.58-1.48h0a146.1,146.1,0,0,0-16.32-5.35L2.06,133a1.64,1.64,0,0,0-1.75,2.55c18.24,25.62,25.87,59.46,59,73.37,23.35,9.8,47.85,16.83,71.53,25.9,16,6.13,31.59,13.48,47.23,20.58C229.25,278.65,281.73,295.45,339,296.1c19.65.22,39.37,7.75,58.78,13,32.57,8.78,64.89,18.46,97.38,27.55h0s16.75,6.16,26.48,38.08c.94,3.11,1.68,5.36,2.25,6.91.46,1.35.93,2.71,1.41,4.06,1,2.71,2,5.42,3.06,8.11v0l.09.21c.16.38.31.76.46,1.14C536.33,414.92,553.45,461,562.5,491c.14.49,5.74,20.22,5.91,37.21,0,1,0,1.94,0,2.91,0,.46,0,.9,0,1.31-.23,16.54-1.38,32.47-1.38,32.47l0,0c-1,14.66,4.34,26.7,14.18,38.1,22,25.5,43.19,51.66,65.25,78.22a.45.45,0,0,0,.78-.37l-.55-2.88a61.76,61.76,0,0,1-1-13.9h0l0-.31c0-.11,0-.22,0-.33v-.11s-7.58-20.49-6.13-39.51v0c.24-13.8,3.07-26.94,3.88-49.92,1.08-30.19-4.49-34.23-4.49-34.23l-4.18-1.18-42.27-12a2.67,2.67,0,0,1-1.75-3.6l38.31-92.74a15.36,15.36,0,0,0,1.15-6.21q-.12-5.49-.15-11a.54.54,0,0,0-1-.17,550.7,550.7,0,0,1-48.42,107,1.71,1.71,0,0,1-3.14-.5c-1.85-8.61-6.12-27.86-8.92-35.52C556,449.37,528.2,373.12,522.86,356.3a3.47,3.47,0,0,1,1.51-4l0,0a3.39,3.39,0,0,1,4,.31c30.74,26.66,65.49,22.91,101.79,15.4a1.89,1.89,0,0,0,1.5-1.72c.11-1.5.22-3,.34-4.52a1.17,1.17,0,0,0-1.35-1.25L621.24,362C612.61,363.4,604,365,595.4,366.6c-.34,0-37.85,3.54-67.54-23.82-2.34-3.21-4.06-7.09-3.8-10.15,3.34-39.15,14.16-75.8,40.65-106.06,2.82-3.22,11-6.6,12.68-5.17,14.7,12.53,33.55,23.69,41.38,40,6.87,14.3,11.32,29.79,15.24,45.51a1.38,1.38,0,0,0,2.71-.21L637.81,294a32.78,32.78,0,0,0-2.18-14.83c-9.34-23.63-22.41-46.38-23.35-72.25a29.1,29.1,0,0,1,9.49-22.58l.51-.45a124.54,124.54,0,0,0,9.05,10.29A47.75,47.75,0,0,0,654.22,207a1.18,1.18,0,0,0,1.29-1.74l-.43-.74a22.5,22.5,0,0,0-8.93-8.51,39.58,39.58,0,0,1-9.5-7.09C606.23,158.07,588,101.68,596,63.21c9.44-45.34,45.8-52.2,59.49-54.78l.46-.09a50.41,50.41,0,0,1,18.65,0l.46.09c13.69,2.58,50.05,9.44,59.49,54.78,8,38.47-10.24,94.86-40.66,125.7a39.58,39.58,0,0,1-9.5,7.09,22.5,22.5,0,0,0-8.93,8.51l-.43.74A1.18,1.18,0,0,0,676.3,207a47.78,47.78,0,0,0,22.9-12.83,125.56,125.56,0,0,0,9-10.18l.38.34A29.07,29.07,0,0,1,718,206.9c-.94,25.87-14,48.62-23.35,72.25A32.64,32.64,0,0,0,692.52,294l1.08,12.69a1.38,1.38,0,0,0,2.71.21c3.92-15.72,8.37-31.21,15.25-45.51,7.83-16.28,26.67-27.44,41.37-40,1.68-1.43,9.87,1.95,12.68,5.17,26.49,30.26,37.31,66.91,40.65,106.06.26,3.06-1.46,6.94-3.8,10.15-29.68,27.36-67.2,23.85-67.54,23.82-8.61-1.57-17.21-3.2-25.84-4.64l-9.42-1.49a1.17,1.17,0,0,0-1.35,1.25c.12,1.51.23,3,.34,4.52a1.89,1.89,0,0,0,1.51,1.72c36.29,7.51,71,11.26,101.78-15.4a3.39,3.39,0,0,1,4-.31l0,0a3.48,3.48,0,0,1,1.5,4c-5.34,16.82-33.1,93.07-45.67,127.48-2.79,7.66-7.07,26.91-8.92,35.52a1.71,1.71,0,0,1-3.14.5,551.29,551.29,0,0,1-48.42-107,.54.54,0,0,0-1,.17c0,3.66-.06,7.32-.15,11a15.37,15.37,0,0,0,1.16,6.21l38.3,92.74a2.67,2.67,0,0,1-1.74,3.6l-42.28,12-4.18,1.18s-5.56,4-4.49,34.23c.81,23,3.65,36.12,3.88,49.92v0c1.46,19-6.12,39.51-6.12,39.51v.11c0,.11,0,.22,0,.33v.31h0a62.36,62.36,0,0,1-1,13.9l-.55,2.88a.45.45,0,0,0,.79.37c22.05-26.56,43.26-52.72,65.24-78.22,9.84-11.4,15.14-23.44,14.18-38.1l0,0s-1.14-15.93-1.38-32.47c0-.41,0-.85,0-1.31l0-2.91c.18-17,5.77-36.72,5.91-37.21,9-29.94,26.17-76,33.61-95.78.16-.38.31-.76.46-1.14l.09-.21v0c1-2.69,2.07-5.4,3-8.11.48-1.35,1-2.71,1.42-4.06.56-1.55,1.3-3.8,2.25-6.91,9.73-31.92,26.47-38.08,26.47-38.08h0c32.49-9.09,64.81-18.77,97.38-27.55,19.41-5.23,39.13-12.76,58.78-13,57.25-.65,109.72-17.45,160.91-40.71,15.64-7.1,31.21-14.45,47.24-20.58,23.68-9.07,48.18-16.1,71.53-25.9,33.11-13.91,40.74-47.75,59-73.37A1.64,1.64,0,0,0,1328.26,133Zm-750,408c6.72-2.74,14.4-3.7,22.16-3.88,18.41.46,30.09,6.51,35.06,9.75,4.43,8.15,1.22,39.47-1.09,57.39-.6,4.27-1.19,8.55-1.79,12.79h0s-1.76,28.72,3.84,40.16l-51.93-61.77h0l-3.71-4.37c-3.23-3.82-5.73-13.25-6.86-22.91C573,547.79,578.06,541.3,578.28,541ZM373.36,237.93l116-17.56h.52l2.09-.05a.49.49,0,0,1,.36.83l-42.23,42.69-2.83-.77h0l-3.6-1h0l-70.62-19.43C373.24,240.05,373.21,240.54,373.36,237.93Zm-28.71,1.37a1.42,1.42,0,0,1-.2,2.68c-20.44,5.31-37.87,12.13-56,11.53L134.3,207.37a1.12,1.12,0,0,1-.25-2l3.29-2.36a3.45,3.45,0,0,1,2.24-.65C207.67,206.41,275.94,209.52,344.65,239.3Zm-303.91-63,64.94,28.48C53,205.38,44.13,201.3,40.74,176.34Zm-28-33.48c34.34,15.79,71.93,24.82,100.41,50.92C73.25,188.93,41.16,169,12.73,142.86ZM95.14,136c-.33-2.24-1.55-11.51.07-12.77l15.31,19.62,37.75,50.4C120.19,195.58,101.88,174.71,95.14,136Zm25.11,78.08a1,1,0,0,1,.53-1.85l6.17.56a2.75,2.75,0,0,1,.93.26c66.6,33.46,140.93,34.17,205.68,73.25C236.24,282.06,120.25,214.09,120.25,214.09ZM417,307c-40.13-10.37-79.59-22.66-118.55-47.2,1.54-.24,3.07-.52,4.58-.82l.18,0c6.2-1.24,12.19-2.93,18-4.63,4.09-1.18,8.11-2.37,12.1-3.42,1.08-.29,2.16-.54,3.25-.76.92-.19,1.84-.35,2.77-.5l.5-.09a62.69,62.69,0,0,1,19.84.2c10.07,1.72,19.78,4.32,23.28,5.3l.34.1.73.21.28.07h0l.05,0h-.05l.17,0c1.18.4,2.38.75,3.61,1l56.42,16.32c-6.46,11-11.26,19.88-17,28.1C425.32,304.05,419.86,307.74,417,307Zm98.92,28.75-86.05-24c21.83-40.95,47.42-73.65,86.53-93.58,15-7.66,30.68-11.33,48.39-2.21C533.45,250.43,522.37,292.43,515.89,335.75Zm91.87-97.1-23.3-22.21a1.35,1.35,0,0,1,.27-2.15l15.77-8.85a1.35,1.35,0,0,1,2,.86c2.48,10.24,4.63,19.13,7.51,31.06A1.34,1.34,0,0,1,607.76,238.65Zm138.1-22.21-23.29,22.21a1.34,1.34,0,0,1-2.23-1.29c2.89-11.93,5-20.82,7.51-31.06a1.35,1.35,0,0,1,2-.86l15.78,8.85A1.35,1.35,0,0,1,745.86,216.44Zm10.5,351.74c-1.12,9.66-3.63,19.09-6.86,22.91-1.24,1.46-2.47,2.92-3.71,4.37h0l-51.93,61.77c5.61-11.44,3.84-40.16,3.84-40.16h0c-.6-4.24-1.19-8.52-1.79-12.79-2.3-17.92-5.52-49.24-1.09-57.39,5-3.24,16.65-9.29,35.07-9.75,7.75.18,15.44,1.14,22.15,3.88C752.26,541.3,757.37,547.79,756.36,568.18ZM985.68,239.3c68.7-29.78,137-32.89,205.06-36.91a3.45,3.45,0,0,1,2.24.65l3.3,2.36a1.13,1.13,0,0,1-.26,2l-154.17,46.14c-18.11.6-35.54-6.22-56-11.53A1.42,1.42,0,0,1,985.68,239.3Zm-147.37-19,2.09.05h.52l116,17.56c.15,2.61.12,2.12.28,4.72l-70.62,19.43h0l-3.59,1h0l-2.83.77L838,221.14A.49.49,0,0,1,838.31,220.31ZM814.43,335.75C808,292.43,796.87,250.43,765.57,216c17.71-9.12,33.35-5.45,48.38,2.21,39.11,19.93,64.7,52.63,86.53,93.58ZM913.35,307c-2.88.74-8.34-2.95-10.52-6.05-5.79-8.22-10.58-17.14-17.05-28.1l56.42-16.32c1.23-.3,2.43-.65,3.61-1l.17,0h-.05l.05,0h0l.27-.07.73-.21.34-.1c3.5-1,13.22-3.58,23.28-5.3a62.75,62.75,0,0,1,19.85-.2l.49.09c.93.15,1.86.31,2.78.5,1.08.22,2.16.47,3.24.76,4,1.05,8,2.24,12.1,3.42,5.85,1.7,11.84,3.39,18.05,4.63l.17,0c1.52.3,3,.58,4.59.82C992.94,284.34,953.48,296.63,913.35,307Zm296.72-92.91s-116,68-213.31,72.22c64.75-39.08,139.08-39.79,205.69-73.25a2.63,2.63,0,0,1,.92-.26l6.17-.56A1,1,0,0,1,1210.07,214.09Zm-28-20.83,37.76-50.4,15.31-19.62c1.61,1.26.39,10.53.07,12.77C1228.44,174.71,1210.13,195.58,1182.05,193.26Zm42.59,11.56,64.94-28.48C1286.19,201.3,1277.34,205.38,1224.64,204.82Zm-7.46-11c28.48-26.1,66.07-35.13,100.41-50.92C1289.16,169,1257.07,188.93,1217.18,193.78Z"/></svg>